<?xml version="1.0" encoding="UTF-8"?>
<!--Generator: Apple Native CoreSVG 175.5-->
<!DOCTYPE svg
PUBLIC "-//W3C//DTD SVG 1.1//EN"
       "http://www.w3.org/Graphics/SVG/1.1/DTD/svg11.dtd">
<svg version="1.1" xmlns="http://www.w3.org/2000/svg" xmlns:xlink="http://www.w3.org/1999/xlink" width="3300" height="2200">
 <!--glyph: "uni100128.medium", point size: 100.0, font version: "18.0d12e2", template writer version: "101"-->
 <g id="Notes">
  <rect height="2200" id="artboard" style="fill:white;opacity:1" width="3300" x="0" y="0"/>
  <line style="fill:none;stroke:black;opacity:1;stroke-width:0.5;" x1="263" x2="3036" y1="292" y2="292"/>
  <text style="stroke:none;fill:black;font-family:sans-serif;font-size:13;font-weight:bold;" transform="matrix(1 0 0 1 263 322)">Weight/Scale Variations</text>
  <text style="stroke:none;fill:black;font-family:sans-serif;font-size:13;text-anchor:middle;" transform="matrix(1 0 0 1 559.711 322)">Ultralight</text>
  <text style="stroke:none;fill:black;font-family:sans-serif;font-size:13;text-anchor:middle;" transform="matrix(1 0 0 1 856.422 322)">Thin</text>
  <text style="stroke:none;fill:black;font-family:sans-serif;font-size:13;text-anchor:middle;" transform="matrix(1 0 0 1 1153.13 322)">Light</text>
  <text style="stroke:none;fill:black;font-family:sans-serif;font-size:13;text-anchor:middle;" transform="matrix(1 0 0 1 1449.84 322)">Regular</text>
  <text style="stroke:none;fill:black;font-family:sans-serif;font-size:13;text-anchor:middle;" transform="matrix(1 0 0 1 1746.56 322)">Medium</text>
  <text style="stroke:none;fill:black;font-family:sans-serif;font-size:13;text-anchor:middle;" transform="matrix(1 0 0 1 2043.27 322)">Semibold</text>
  <text style="stroke:none;fill:black;font-family:sans-serif;font-size:13;text-anchor:middle;" transform="matrix(1 0 0 1 2339.98 322)">Bold</text>
  <text style="stroke:none;fill:black;font-family:sans-serif;font-size:13;text-anchor:middle;" transform="matrix(1 0 0 1 2636.69 322)">Heavy</text>
  <text style="stroke:none;fill:black;font-family:sans-serif;font-size:13;text-anchor:middle;" transform="matrix(1 0 0 1 2933.4 322)">Black</text>
  <line style="fill:none;stroke:black;opacity:1;stroke-width:0.5;" x1="263" x2="3036" y1="1903" y2="1903"/>
  <g transform="matrix(1 0 0 1 263 1933)">
   <path d="M9.24805 0.830078C13.5547 0.830078 17.1387-2.74414 17.1387-7.05078C17.1387-11.3574 13.5449-14.9316 9.23828-14.9316C4.94141-14.9316 1.36719-11.3574 1.36719-7.05078C1.36719-2.74414 4.95117 0.830078 9.24805 0.830078ZM9.24805-0.654297C5.70312-0.654297 2.87109-3.49609 2.87109-7.05078C2.87109-10.6055 5.69336-13.4473 9.23828-13.4473C12.793-13.4473 15.6445-10.6055 15.6445-7.05078C15.6445-3.49609 12.8027-0.654297 9.24805-0.654297ZM5.6543-7.05078C5.6543-6.62109 5.95703-6.32812 6.40625-6.32812L8.50586-6.32812L8.50586-4.20898C8.50586-3.76953 8.79883-3.4668 9.22852-3.4668C9.67773-3.4668 9.9707-3.76953 9.9707-4.20898L9.9707-6.32812L12.0898-6.32812C12.5293-6.32812 12.832-6.62109 12.832-7.05078C12.832-7.49023 12.5293-7.79297 12.0898-7.79297L9.9707-7.79297L9.9707-9.90234C9.9707-10.3516 9.67773-10.6543 9.22852-10.6543C8.79883-10.6543 8.50586-10.3516 8.50586-9.90234L8.50586-7.79297L6.40625-7.79297C5.95703-7.79297 5.6543-7.49023 5.6543-7.05078Z"/>
  </g>
  <g transform="matrix(1 0 0 1 281.867 1933)">
   <path d="M11.709 2.91016C17.1582 2.91016 21.6699-1.61133 21.6699-7.05078C21.6699-12.5 17.1484-17.0117 11.6992-17.0117C6.25977-17.0117 1.74805-12.5 1.74805-7.05078C1.74805-1.61133 6.26953 2.91016 11.709 2.91016ZM11.709 1.25C7.09961 1.25 3.41797-2.44141 3.41797-7.05078C3.41797-11.6602 7.08984-15.3516 11.6992-15.3516C16.3086-15.3516 20.0098-11.6602 20.0098-7.05078C20.0098-2.44141 16.3184 1.25 11.709 1.25ZM7.17773-7.05078C7.17773-6.57227 7.50977-6.25 8.00781-6.25L10.8789-6.25L10.8789-3.36914C10.8789-2.88086 11.2109-2.53906 11.6895-2.53906C12.1777-2.53906 12.5195-2.87109 12.5195-3.36914L12.5195-6.25L15.4004-6.25C15.8887-6.25 16.2305-6.57227 16.2305-7.05078C16.2305-7.53906 15.8887-7.88086 15.4004-7.88086L12.5195-7.88086L12.5195-10.752C12.5195-11.25 12.1777-11.5918 11.6895-11.5918C11.2109-11.5918 10.8789-11.25 10.8789-10.752L10.8789-7.88086L8.00781-7.88086C7.50977-7.88086 7.17773-7.53906 7.17773-7.05078Z"/>
  </g>
  <g transform="matrix(1 0 0 1 305.646 1933)">
   <path d="M14.9707 5.66406C21.9336 5.66406 27.6953-0.0976562 27.6953-7.05078C27.6953-14.0137 21.9238-19.7754 14.9609-19.7754C8.00781-19.7754 2.25586-14.0137 2.25586-7.05078C2.25586-0.0976562 8.01758 5.66406 14.9707 5.66406ZM14.9707 3.84766C8.93555 3.84766 4.08203-1.01562 4.08203-7.05078C4.08203-13.0957 8.92578-17.9492 14.9609-17.9492C21.0059-17.9492 25.8691-13.0957 25.8691-7.05078C25.8691-1.01562 21.0156 3.84766 14.9707 3.84766ZM9.19922-7.05078C9.19922-6.5332 9.57031-6.17188 10.1172-6.17188L14.0625-6.17188L14.0625-2.2168C14.0625-1.67969 14.4336-1.29883 14.9512-1.29883C15.4883-1.29883 15.8594-1.66992 15.8594-2.2168L15.8594-6.17188L19.8145-6.17188C20.3516-6.17188 20.7324-6.5332 20.7324-7.05078C20.7324-7.59766 20.3613-7.96875 19.8145-7.96875L15.8594-7.96875L15.8594-11.9141C15.8594-12.4609 15.4883-12.8418 14.9512-12.8418C14.4336-12.8418 14.0625-12.4609 14.0625-11.9141L14.0625-7.96875L10.1172-7.96875C9.57031-7.96875 9.19922-7.59766 9.19922-7.05078Z"/>
  </g>
  <text style="stroke:none;fill:black;font-family:sans-serif;font-size:13;font-weight:bold;" transform="matrix(1 0 0 1 263 1953)">Design Variations</text>
  <text style="stroke:none;fill:black;font-family:sans-serif;font-size:13;" transform="matrix(1 0 0 1 263 1971)">Symbols are supported in up to nine weights and three scales.</text>
  <text style="stroke:none;fill:black;font-family:sans-serif;font-size:13;" transform="matrix(1 0 0 1 263 1989)">For optimal layout with text and other symbols, vertically align</text>
  <text style="stroke:none;fill:black;font-family:sans-serif;font-size:13;" transform="matrix(1 0 0 1 263 2007)">symbols with the adjacent text.</text>
  <line style="fill:none;stroke:#00AEEF;stroke-width:0.5;opacity:1.0;" x1="776" x2="776" y1="1919" y2="1933"/>
  <g transform="matrix(1 0 0 1 776 1933)">
   <path d="M3.31055 0.15625C3.82812 0.15625 4.08203-0.0390625 4.26758-0.585938L5.52734-4.0332L11.2891-4.0332L12.5488-0.585938C12.7344-0.0390625 12.9883 0.15625 13.4961 0.15625C14.0137 0.15625 14.3457-0.15625 14.3457-0.644531C14.3457-0.810547 14.3164-0.966797 14.2383-1.17188L9.6582-13.3691C9.43359-13.9648 9.0332-14.2676 8.4082-14.2676C7.80273-14.2676 7.39258-13.9746 7.17773-13.3789L2.59766-1.16211C2.51953-0.957031 2.49023-0.800781 2.49023-0.634766C2.49023-0.146484 2.80273 0.15625 3.31055 0.15625ZM6.00586-5.51758L8.37891-12.0898L8.42773-12.0898L10.8008-5.51758Z"/>
  </g>
  <line style="fill:none;stroke:#00AEEF;stroke-width:0.5;opacity:1.0;" x1="793.197" x2="793.197" y1="1919" y2="1933"/>
  <text style="stroke:none;fill:black;font-family:sans-serif;font-size:13;font-weight:bold;" transform="matrix(1 0 0 1 776 1953)">Margins</text>
  <text style="stroke:none;fill:black;font-family:sans-serif;font-size:13;" transform="matrix(1 0 0 1 776 1971)">Leading and trailing margins on the left and right side of each symbol</text>
  <text style="stroke:none;fill:black;font-family:sans-serif;font-size:13;" transform="matrix(1 0 0 1 776 1989)">can be adjusted by modifying the x-location of the margin guidelines.</text>
  <text style="stroke:none;fill:black;font-family:sans-serif;font-size:13;" transform="matrix(1 0 0 1 776 2007)">Modifications are automatically applied proportionally to all</text>
  <text style="stroke:none;fill:black;font-family:sans-serif;font-size:13;" transform="matrix(1 0 0 1 776 2025)">scales and weights.</text>
  <g transform="matrix(1 0 0 1 1289 1933)">
   <path d="M2.8418 1.86523L4.54102 3.57422C5.40039 4.44336 6.38672 4.38477 7.31445 3.35938L18.0078-8.42773L17.041-9.4043L6.42578 2.27539C6.07422 2.67578 5.74219 2.77344 5.27344 2.30469L4.10156 1.14258C3.63281 0.683594 3.74023 0.341797 4.14062-0.0195312L15.6152-10.8203L14.6387-11.7871L3.04688-0.898438C2.06055 0.0195312 1.98242 0.996094 2.8418 1.86523ZM9.25781-16.3281C8.83789-15.918 8.80859-15.3418 9.04297-14.9512C9.27734-14.5898 9.73633-14.3555 10.3809-14.5215C11.8457-14.8633 13.3691-14.9219 14.7949-13.9844L14.209-12.5293C13.8672-11.6992 14.043-11.1133 14.5801-10.5664L16.875-8.25195C17.3633-7.76367 17.7734-7.74414 18.3398-7.8418L19.4043-8.03711L20.0684-7.36328L20.0293-6.80664C19.9902-6.30859 20.1172-5.92773 20.6055-5.44922L21.3672-4.70703C21.8457-4.22852 22.4609-4.19922 22.9297-4.66797L25.8398-7.58789C26.3086-8.05664 26.2891-8.65234 25.8105-9.13086L25.0391-9.89258C24.5605-10.3711 24.1895-10.5273 23.7109-10.4883L23.1348-10.4395L22.4902-11.0742L22.7344-12.1973C22.8613-12.7637 22.7051-13.2031 22.1191-13.7891L19.9219-15.9766C16.582-19.2969 12.1484-19.2188 9.25781-16.3281ZM10.752-15.957C13.1836-17.7344 16.4746-17.4316 18.7012-15.2051L21.1328-12.793C21.3672-12.5586 21.4062-12.373 21.3379-12.0312L21.0156-10.5469L22.5195-9.0625L23.5059-9.12109C23.7598-9.13086 23.8379-9.11133 24.0332-8.91602L24.6094-8.33984L22.168-5.89844L21.5918-6.47461C21.3965-6.66992 21.3672-6.74805 21.377-7.01172L21.4453-7.98828L19.9512-9.47266L18.4277-9.21875C18.1055-9.15039 17.959-9.17969 17.7148-9.41406L15.7129-11.416C15.459-11.6504 15.4297-11.8164 15.5859-12.1875L16.4648-14.2773C14.9023-15.7324 12.8711-16.3574 10.8398-15.7617C10.6836-15.7227 10.625-15.8496 10.752-15.957Z"/>
  </g>
  <text style="stroke:none;fill:black;font-family:sans-serif;font-size:13;font-weight:bold;" transform="matrix(1 0 0 1 1289 1953)">Exporting</text>
  <text style="stroke:none;fill:black;font-family:sans-serif;font-size:13;" transform="matrix(1 0 0 1 1289 1971)">Symbols should be outlined when exporting to ensure the</text>
  <text style="stroke:none;fill:black;font-family:sans-serif;font-size:13;" transform="matrix(1 0 0 1 1289 1989)">design is preserved when submitting to Xcode.</text>
  <text id="template-version" style="stroke:none;fill:black;font-family:sans-serif;font-size:13;text-anchor:end;" transform="matrix(1 0 0 1 3036 1933)">Template v.4.0</text>
  <text style="stroke:none;fill:black;font-family:sans-serif;font-size:13;text-anchor:end;" transform="matrix(1 0 0 1 3036 1951)">Requires Xcode 14 or greater</text>
  <text id="descriptive-name" style="stroke:none;fill:black;font-family:sans-serif;font-size:13;text-anchor:end;" transform="matrix(1 0 0 1 3036 1969)">Generated from arrow.up</text>
  <text style="stroke:none;fill:black;font-family:sans-serif;font-size:13;text-anchor:end;" transform="matrix(1 0 0 1 3036 1987)">Typeset at 100 points</text>
  <text style="stroke:none;fill:black;font-family:sans-serif;font-size:13;" transform="matrix(1 0 0 1 263 726)">Small</text>
  <text style="stroke:none;fill:black;font-family:sans-serif;font-size:13;" transform="matrix(1 0 0 1 263 1156)">Medium</text>
  <text style="stroke:none;fill:black;font-family:sans-serif;font-size:13;" transform="matrix(1 0 0 1 263 1586)">Large</text>
 </g>
 <g id="Guides">
  <g id="H-reference" style="fill:#27AAE1;stroke:none;" transform="matrix(1 0 0 1 339 696)">
   <path d="M0.993654 0L3.63775 0L29.3281-67.1323L30.0303-67.1323L30.0303-70.459L28.1226-70.459ZM11.6885-24.4799L46.9815-24.4799L46.2315-26.7285L12.4385-26.7285ZM55.1196 0L57.7637 0L30.6382-70.459L29.4326-70.459L29.4326-67.1323Z"/>
  </g>
  <line id="Baseline-S" style="fill:none;stroke:#27AAE1;opacity:1;stroke-width:0.5;" x1="263" x2="3036" y1="696" y2="696"/>
  <line id="Capline-S" style="fill:none;stroke:#27AAE1;opacity:1;stroke-width:0.5;" x1="263" x2="3036" y1="625.541" y2="625.541"/>
  <g id="H-reference" style="fill:#27AAE1;stroke:none;" transform="matrix(1 0 0 1 339 1126)">
   <path d="M0.993654 0L3.63775 0L29.3281-67.1323L30.0303-67.1323L30.0303-70.459L28.1226-70.459ZM11.6885-24.4799L46.9815-24.4799L46.2315-26.7285L12.4385-26.7285ZM55.1196 0L57.7637 0L30.6382-70.459L29.4326-70.459L29.4326-67.1323Z"/>
  </g>
  <line id="Baseline-M" style="fill:none;stroke:#27AAE1;opacity:1;stroke-width:0.5;" x1="263" x2="3036" y1="1126" y2="1126"/>
  <line id="Capline-M" style="fill:none;stroke:#27AAE1;opacity:1;stroke-width:0.5;" x1="263" x2="3036" y1="1055.54" y2="1055.54"/>
  <g id="H-reference" style="fill:#27AAE1;stroke:none;" transform="matrix(1 0 0 1 339 1556)">
   <path d="M0.993654 0L3.63775 0L29.3281-67.1323L30.0303-67.1323L30.0303-70.459L28.1226-70.459ZM11.6885-24.4799L46.9815-24.4799L46.2315-26.7285L12.4385-26.7285ZM55.1196 0L57.7637 0L30.6382-70.459L29.4326-70.459L29.4326-67.1323Z"/>
  </g>
  <line id="Baseline-L" style="fill:none;stroke:#27AAE1;opacity:1;stroke-width:0.5;" x1="263" x2="3036" y1="1556" y2="1556"/>
  <line id="Capline-L" style="fill:none;stroke:#27AAE1;opacity:1;stroke-width:0.5;" x1="263" x2="3036" y1="1485.54" y2="1485.54"/>
  <line id="left-margin-Regular-M" style="fill:none;stroke:#00AEEF;stroke-width:0.5;opacity:1.0;" x1="1400.38" x2="1400.38" y1="1030.79" y2="1150.12"/>
  <line id="right-margin-Regular-M" style="fill:none;stroke:#00AEEF;stroke-width:0.5;opacity:1.0;" x1="1499.31" x2="1499.31" y1="1030.79" y2="1150.12"/>
 </g>
 <g id="Symbols">
  <g id="Black-L" transform="matrix(1 0 0 1 2865.05 1556)">
   <path d="M68.3229 25.6073C75.0955 25.6073 79.6093 20.8808 79.6093 13.7589L79.6093-48.2097L78.4058-74.8549L72.1204-70.0377L88.1092-50.8492L101.907-37.0178C103.953-34.9133 106.5-33.3427 109.982-33.3427C116.01-33.3427 120.62-37.7592 120.62-44.1786C120.62-47.1344 119.401-49.9294 117.115-52.2559L76.5963-92.7908C74.6022-94.8056 71.358-96.0663 68.3229-96.0663C65.2891-96.0663 62.0436-94.8056 60.0496-92.7908L19.5903-52.2559C17.3042-49.9294 16.084-47.1344 16.084-44.1786C16.084-37.7592 20.6938-33.3427 26.7239-33.3427C30.2041-33.3427 32.7511-34.9133 34.7983-37.0178L48.5366-50.8492L64.5046-70.0377L58.24-74.8549L57.0377-48.2097L57.0377 13.7589C57.0377 20.8808 61.5503 25.6073 68.3229 25.6073Z"/>
  </g>
  <g id="Heavy-L" transform="matrix(1 0 0 1 2569.45 1556)">
   <path d="M67.2128 25.267C73.1053 25.267 77.0769 21.1471 77.0769 14.9925L77.0769-52.2417L76.0053-76.9197L70.4418-72.9682L87.7785-52.7111L102.03-38.4908C103.803-36.6737 106.077-35.3501 109.065-35.3501C114.356-35.3501 118.386-39.257 118.386-44.8414C118.386-47.4277 117.336-49.8532 115.328-51.9161L74.4516-92.8001C72.6666-94.6153 69.874-95.726 67.2128-95.726C64.5573-95.726 61.7591-94.6153 59.9741-92.8001L19.148-51.9161C17.1399-49.8532 16.084-47.4277 16.084-44.8414C16.084-39.257 20.1147-35.3501 25.4113-35.3501C28.3936-35.3501 30.6676-36.6737 32.4457-38.4908L46.6472-52.7111L63.9537-72.9682L58.4204-76.9197L57.3544-52.2417L57.3544 14.9925C57.3544 21.1471 61.3204 25.267 67.2128 25.267Z"/>
  </g>
  <g id="Bold-L" transform="matrix(1 0 0 1 2274.09 1556)">
   <path d="M65.8747 24.8221C70.6835 24.8221 73.9791 21.4476 73.9791 16.4769L73.9791-57.199L73.0763-79.4784L68.449-76.5355L86.924-55.538L102.251-40.3046C103.685-38.841 105.614-37.8098 108.009-37.8098C112.379-37.8098 115.695-41.0717 115.695-45.6337C115.695-47.7666 114.852-49.7386 113.189-51.4637L71.8303-92.8079C70.3139-94.3623 68.0747-95.2811 65.8747-95.2811C63.6879-95.2811 61.4355-94.3623 59.9191-92.8079L18.6024-51.4637C16.94-49.7386 16.084-47.7666 16.084-45.6337C16.084-41.0717 19.4-37.8098 23.7824-37.8098C26.1648-37.8098 28.0932-38.841 29.5408-40.3046L44.8254-55.538L63.2624-76.5355L58.6731-79.4784L57.7835-57.199L57.7835 16.4769C57.7835 21.4476 61.0659 24.8221 65.8747 24.8221Z"/>
  </g>
  <g id="Semibold-L" transform="matrix(1 0 0 1 1978.31 1556)">
   <path d="M64.9522 24.5153C69.0139 24.5153 71.8434 21.6549 71.8434 17.5002L71.8434-60.6165L71.0571-81.2424L67.0751-78.9948L86.3349-57.4868L102.403-41.5549C103.604-40.3351 105.295-39.5055 107.282-39.5055C111.016-39.5055 113.839-42.3227 113.839-46.18C113.839-48.0002 113.139-49.6596 111.715-51.1519L70.0231-92.8133C68.6919-94.1879 66.8343-94.9743 64.9522-94.9743C63.0885-94.9743 61.2124-94.1879 59.8812-92.8133L18.2262-51.1519C16.8022-49.6596 16.084-48.0002 16.084-46.18C16.084-42.3227 18.9073-39.5055 22.6594-39.5055C24.6283-39.5055 26.3185-40.3351 27.5383-41.5549L43.5694-57.4868L62.7858-78.9948L58.8473-81.2424L58.0794-60.6165L58.0794 17.5002C58.0794 21.6549 60.8904 24.5153 64.9522 24.5153Z"/>
  </g>
  <g id="Medium-L" transform="matrix(1 0 0 1 1682.3 1556)">
   <path d="M64.2527 24.2827C67.748 24.2827 70.2241 21.812 70.2241 18.2761L70.2241-63.2078L69.526-82.5799L66.0334-80.8595L85.8883-58.9645L102.518-42.503C103.543-41.468 105.053-40.7912 106.73-40.7912C109.982-40.7912 112.432-43.2713 112.432-46.5942C112.432-48.1773 111.841-49.5996 110.597-50.9154L68.6529-92.8174C67.4621-94.0556 65.8938-94.7417 64.2527-94.7417C62.634-94.7417 61.0432-94.0556 59.8525-92.8174L17.941-50.9154C16.6977-49.5996 16.084-48.1773 16.084-46.5942C16.084-43.2713 18.5337-40.7912 21.808-40.7912C23.4633-40.7912 24.9728-41.468 26.0198-42.503L42.6171-58.9645L62.4245-80.8595L58.9793-82.5799L58.3037-63.2078L58.3037 18.2761C58.3037 21.812 60.7574 24.2827 64.2527 24.2827Z"/>
  </g>
  <g id="Regular-L" transform="matrix(1 0 0 1 1386.5 1556)">
   <path d="M63.3403 23.9794C66.0967 23.9794 68.1119 22.0169 68.1119 19.2882L68.1119-66.5878L67.529-84.3245L64.6747-83.2918L85.3057-60.8919L102.669-43.7397C103.463-42.9457 104.737-42.4683 106.011-42.4683C108.634-42.4683 110.597-44.5086 110.597-47.1344C110.597-48.4084 110.147-49.5215 109.139-50.607L66.8656-92.8227C65.858-93.8831 64.667-94.4384 63.3403-94.4384C62.0412-94.4384 60.8226-93.8831 59.815-92.8227L17.569-50.607C16.5614-49.5215 16.084-48.4084 16.084-47.1344C16.084-44.5086 18.0464-42.4683 20.6973-42.4683C21.9436-42.4683 23.2176-42.9457 24.0393-43.7397L41.3749-60.8919L61.9532-83.2918L59.1516-84.3245L58.5963-66.5878L58.5963 19.2882C58.5963 22.0169 60.5839 23.9794 63.3403 23.9794Z"/>
  </g>
  <g id="Light-L" transform="matrix(1 0 0 1 1090.48 1556)">
   <path d="M62.6532 23.5213C64.7035 23.5213 66.2225 22.036 66.2225 20.0325L66.2225-69.775L65.7922-86.0994L63.854-85.353L81.8513-66.1976L103.261-44.923C103.826-44.358 104.813-43.9951 105.801-43.9951C107.737-43.9951 109.222-45.501 109.222-47.497C109.222-48.4847 108.906-49.3115 108.147-50.0917L65.2816-92.8036C64.5221-93.5968 63.6746-93.9803 62.6532-93.9803C61.6786-93.9803 60.7844-93.5968 60.0249-92.8036L17.2064-50.0917C16.4469-49.3115 16.084-48.4847 16.084-47.497C16.084-45.501 17.5693-43.9951 19.5522-43.9951C20.4932-43.9951 21.4809-44.358 22.0926-44.923L43.4552-66.1976L61.4188-85.353L59.5142-86.0994L59.1307-69.775L59.1307 20.0325C59.1307 22.036 60.6029 23.5213 62.6532 23.5213Z"/>
  </g>
  <g id="Thin-L" transform="matrix(1 0 0 1 794.678 1556)">
   <path d="M61.7445 22.9155C62.8609 22.9155 63.7236 22.0613 63.7236 21.0169L63.7236-73.9904L63.4952-88.4469L62.7686-88.0791L77.2825-73.2148L104.043-46.488C104.305-46.2259 104.914-46.0144 105.523-46.0144C106.551-46.0144 107.405-46.8136 107.405-47.9766C107.405-48.5857 107.266-49.0339 106.834-49.4101L63.1865-92.7784C62.7551-93.2182 62.362-93.3745 61.7445-93.3745C61.199-93.3745 60.7339-93.2182 60.3026-92.7784L16.7268-49.4101C16.2954-49.0339 16.084-48.5857 16.084-47.9766C16.084-46.8136 16.9382-46.0144 18.0377-46.0144C18.5748-46.0144 19.1839-46.2259 19.5179-46.488L46.2065-73.2148L60.712-88.0791L59.9938-88.4469L59.8375-73.9904L59.8375 21.0169C59.8375 22.0613 60.6282 22.9155 61.7445 22.9155Z"/>
  </g>
  <g id="Ultralight-L" transform="matrix(1 0 0 1 498.432 1556)">
   <path d="M61.2791 22.6052C61.9171 22.6052 62.4436 22.0742 62.4436 21.5211L62.4436-76.1495L62.3187-89.6493L62.2127-89.4754L74.9424-76.809L104.444-47.2896C104.551-47.1826 104.966-47.0487 105.381-47.0487C105.943-47.0487 106.474-47.4859 106.474-48.2222C106.474-48.6374 106.425-48.8917 106.162-49.061L62.1134-92.7655C61.8501-93.0242 61.6897-93.0642 61.2791-93.0642C60.9534-93.0642 60.7081-93.0242 60.4448-92.7655L16.4811-49.061C16.2179-48.8917 16.084-48.6374 16.084-48.2222C16.084-47.4859 16.615-47.0487 17.262-47.0487C17.5922-47.0487 18.0073-47.1826 18.1992-47.2896L47.6158-76.809L60.35-89.4754L60.2395-89.6493L60.1995-76.1495L60.1995 21.5211C60.1995 22.0742 60.6411 22.6052 61.2791 22.6052Z"/>
  </g>
  <g id="Black-M" transform="matrix(1 0 0 1 2879.58 1126)">
   <path d="M53.7936 12.1338C59.7014 12.1338 63.5971 8.01518 63.5971 1.76451L63.5971-42.2525L62.5721-64.3949L57.2061-59.9575L68.0781-46.4495L78.9261-35.5093C80.7153-33.663 82.8843-32.2493 85.967-32.2493C91.1789-32.2493 95.1833-36.0366 95.1833-41.6422C95.1833-44.2109 94.112-46.6551 92.1356-48.6428L60.971-79.814C59.28-81.5104 56.4249-82.5928 53.7936-82.5928C51.162-82.5928 48.3071-81.5104 46.6162-79.814L15.5084-48.6428C13.532-46.6551 12.4609-44.2109 12.4609-41.6422C12.4609-36.0366 16.4653-32.2493 21.677-32.2493C24.7599-32.2493 26.929-33.663 28.7179-35.5093L39.5091-46.4495L50.3756-59.9575L45.0151-64.3949L43.9898-42.2525L43.9898 1.76451C43.9898 8.01518 47.8858 12.1338 53.7936 12.1338Z"/>
  </g>
  <g id="Heavy-M" transform="matrix(1 0 0 1 2583.9 1126)">
   <path d="M52.7718 11.8433C57.8843 11.8433 61.2958 8.27376 61.2958 2.90179L61.2958-45.9L60.3856-66.2496L55.6409-62.6322L68.0735-47.7801L78.9918-36.8401C80.5348-35.2536 82.4634-34.0708 85.0899-34.0708C89.6439-34.0708 93.1263-37.4092 93.1263-42.2567C93.1263-44.4907 92.2075-46.6 90.48-48.3581L59.0205-79.8249C57.511-81.3508 55.0658-82.3023 52.7718-82.3023C50.4801-82.3023 48.0325-81.3508 46.5231-79.8249L15.1095-48.3581C13.3819-46.6 12.4609-44.4907 12.4609-42.2567C12.4609-37.4092 15.9433-34.0708 20.4995-34.0708C23.1238-34.0708 25.0524-35.2536 26.5976-36.8401L37.4701-47.7801L49.8863-62.6322L45.158-66.2496L44.25-45.9L44.25 2.90179C44.25 8.27376 47.6593 11.8433 52.7718 11.8433Z"/>
  </g>
  <g id="Bold-M" transform="matrix(1 0 0 1 2288.33 1126)">
   <path d="M51.6288 11.5185C55.8516 11.5185 58.7215 8.56301 58.7215 4.17399L58.7215-49.9802L57.9397-68.3244L53.89-65.6242L68.0683-49.2686L79.0654-38.3289C80.3329-37.0329 81.9925-36.1085 84.1089-36.1085C87.9268-36.1085 90.8251-38.9447 90.8251-42.9441C90.8251-44.8036 90.0771-46.5384 88.6279-48.0397L56.8386-79.8371C55.5322-81.1722 53.5454-81.9774 51.6288-81.9774C49.7173-81.9774 47.7253-81.1722 46.4189-79.8371L14.6633-48.0397C13.2141-46.5384 12.4609-44.8036 12.4609-42.9441C12.4609-38.9447 15.3593-36.1085 19.1823-36.1085C21.2936-36.1085 22.9532-37.0329 24.2257-38.3289L35.1892-49.2686L49.3389-65.6242L45.3178-68.3244L44.5411-49.9802L44.5411 4.17399C44.5411 8.56301 47.4059 11.5185 51.6288 11.5185Z"/>
  </g>
  <g id="Semibold-M" transform="matrix(1 0 0 1 1992.42 1126)">
   <path d="M50.8407 11.2945C54.4503 11.2945 56.9468 8.76242 56.9468 5.05104L56.9468-52.793L56.2535-69.7548L52.6829-67.6868L68.0647-50.2948L79.1162-39.3552C80.1937-38.2595 81.6678-37.5132 83.4325-37.5132C86.743-37.5132 89.2387-40.0033 89.2387-43.418C89.2387-45.0193 88.6085-46.4959 87.3511-47.8202L55.3345-79.8455C54.1679-81.0491 52.4972-81.7535 50.8407-81.7535C49.1914-81.7535 47.5136-81.0491 46.347-79.8455L14.3556-47.8202C13.0983-46.4959 12.4609-45.0193 12.4609-43.418C12.4609-40.0033 14.9567-37.5132 18.2743-37.5132C20.0318-37.5132 21.506-38.2595 22.5906-39.3552L33.6168-50.2948L48.9615-67.6868L45.428-69.7548L44.7418-52.793L44.7418 5.05104C44.7418 8.76242 47.2312 11.2945 50.8407 11.2945Z"/>
  </g>
  <g id="Medium-M" transform="matrix(1 0 0 1 1696.31 1126)">
   <path d="M50.2433 11.1246C53.3878 11.1246 55.6011 8.91362 55.6011 5.71605L55.6011-54.9259L54.9749-70.8394L51.7677-69.2508L68.062-51.0729L79.1546-40.1334C80.0881-39.1896 81.4217-38.5783 82.9197-38.5783C85.8454-38.5783 88.0358-40.8059 88.0358-43.7774C88.0358-45.1829 87.4948-46.4637 86.383-47.6538L54.1939-79.8519C53.1335-80.9558 51.7024-81.5836 50.2433-81.5836C48.7927-81.5836 47.353-80.9558 46.2926-79.8519L14.1223-47.6538C13.0105-46.4637 12.4609-45.1829 12.4609-43.7774C12.4609-40.8059 14.6514-38.5783 17.5857-38.5783C19.0751-38.5783 20.4087-39.1896 21.3507-40.1334L32.4245-51.0729L48.6754-69.2508L45.5116-70.8394L44.894-54.9259L44.894 5.71605C44.894 8.91362 47.0987 11.1246 50.2433 11.1246Z"/>
  </g>
  <g id="Regular-M" transform="matrix(1 0 0 1 1400.38 1126)">
   <path d="M49.4639 10.9031C52.0018 10.9031 53.8459 9.11084 53.8459 6.58346L53.8459-57.7078L53.3072-72.254L50.5738-71.2908L68.0584-52.0878L79.2048-41.1484C79.9505-40.4027 81.1006-39.9676 82.2507-39.9676C84.6746-39.9676 86.4669-41.8529 86.4669-44.2461C86.4669-45.3962 86.0423-46.4217 85.1203-47.4367L52.7063-79.8602C51.7843-80.834 50.6658-81.3621 49.4639-81.3621C48.2726-81.3621 47.1435-80.834 46.2215-79.8602L13.8181-47.4367C12.8961-46.4217 12.4609-45.3962 12.4609-44.2461C12.4609-41.8529 14.2532-39.9676 16.6876-39.9676C17.8272-39.9676 18.9774-40.4027 19.7336-41.1484L30.8694-52.0878L48.3022-71.2908L45.6206-72.254L45.0925-57.7078L45.0925 6.58346C45.0925 9.11084 46.926 10.9031 49.4639 10.9031Z"/>
  </g>
  <g id="Light-M" transform="matrix(1 0 0 1 1104.29 1126)">
   <path d="M48.8479 10.4925C50.7527 10.4925 52.1519 9.12795 52.1519 7.25079L52.1519-60.5654L51.7501-73.8453L49.8381-73.1388L64.9613-56.8446L79.7353-42.2093C80.2756-41.669 81.169-41.3365 82.0625-41.3365C83.8704-41.3365 85.2349-42.7426 85.2349-44.5712C85.2349-45.4647 84.9301-46.2335 84.2305-46.9747L51.2861-79.8431C50.5865-80.5774 49.776-80.9514 48.8479-80.9514C47.9475-80.9514 47.1093-80.5774 46.4098-79.8431L13.493-46.9747C12.7934-46.2335 12.4609-45.4647 12.4609-44.5712C12.4609-42.7426 13.8254-41.3365 15.661-41.3365C16.5268-41.3365 17.4203-41.669 17.9882-42.2093L32.7345-56.8446L47.8231-73.1388L45.9457-73.8453L45.5716-60.5654L45.5716 7.25079C45.5716 9.12795 46.9431 10.4925 48.8479 10.4925Z"/>
  </g>
  <g id="Thin-M" transform="matrix(1 0 0 1 808.389 1126)">
   <path d="M48.0332 9.94933C49.1007 9.94933 49.9115 9.15059 49.9115 8.13338L49.9115-64.3447L49.6908-75.95L48.865-75.5829L60.8652-63.1359L80.4368-43.6124C80.7056-43.3436 81.2596-43.1469 81.8136-43.1469C82.8068-43.1469 83.6055-43.9194 83.6055-45.0012C83.6055-45.5552 83.4591-45.9846 83.0537-46.3637L49.4077-79.8205C49.0024-80.2379 48.5992-80.4083 48.0332-80.4083C47.5175-80.4083 47.0641-80.2379 46.6587-79.8205L13.063-46.3637C12.6576-45.9846 12.4609-45.5552 12.4609-45.0012C12.4609-43.9194 13.2597-43.1469 14.3031-43.1469C14.8069-43.1469 15.3609-43.3436 15.6799-43.6124L35.2012-63.1359L47.1895-75.5829L46.3757-75.95L46.2053-64.3447L46.2053 8.13338C46.2053 9.15059 46.9657 9.94933 48.0332 9.94933Z"/>
  </g>
  <g id="Ultralight-M" transform="matrix(1 0 0 1 512.095 1126)">
   <path d="M47.6159 9.67114C48.2545 9.67114 48.7639 9.16218 48.7639 8.58544L48.7639-66.2804L48.636-77.028L48.3665-76.8347L58.7672-66.3583L80.7961-44.331C80.9258-44.2014 81.3059-44.0742 81.6861-44.0742C82.262-44.0742 82.7709-44.5222 82.7709-45.2214C82.7709-45.6015 82.7057-45.8571 82.451-46.0507L48.4457-79.8089C48.191-80.064 47.9965-80.1301 47.6159-80.1301C47.2973-80.1301 47.0409-80.064 46.7862-79.8089L12.8428-46.0507C12.5881-45.8571 12.4609-45.6015 12.4609-45.2214C12.4609-44.5222 12.9699-44.0742 13.6077-44.0742C13.9259-44.0742 14.3061-44.2014 14.4976-44.331L36.4647-66.3583L46.8649-76.8347L46.5959-77.028L46.5298-66.2804L46.5298 8.58544C46.5298 9.16218 46.9773 9.67114 47.6159 9.67114Z"/>
  </g>
  <g id="Black-S" transform="matrix(1 0 0 1 2890.94 696)">
   <path d="M42.4316 1.95312C47.2656 1.95312 50.4395-1.41602 50.4395-6.54297L50.4395-39.7949L49.6094-57.6172L45.2637-53.9062L53.1738-43.8965L61.8652-35.1074C63.3301-33.5938 65.0879-32.4219 67.627-32.4219C71.875-32.4219 75.1465-35.498 75.1465-40.0879C75.1465-42.1875 74.2676-44.1895 72.6562-45.8008L48.291-70.166C46.9238-71.5332 44.5801-72.4121 42.4316-72.4121C40.2832-72.4121 37.9395-71.5332 36.5723-70.166L12.2559-45.8008C10.6445-44.1895 9.76562-42.1875 9.76562-40.0879C9.76562-35.498 13.0371-32.4219 17.2852-32.4219C19.8242-32.4219 21.582-33.5938 23.0469-35.1074L31.6895-43.8965L39.5996-53.9062L35.2539-57.6172L34.4238-39.7949L34.4238-6.54297C34.4238-1.41602 37.5977 1.95312 42.4316 1.95312Z"/>
  </g>
  <g id="Heavy-S" transform="matrix(1 0 0 1 2595.03 696)">
   <path d="M41.6365 1.75721C45.8712 1.75721 48.6877-1.19705 48.6877-5.65558L48.6877-42.5493L47.9383-59.0001L44.019-55.9576L53.5657-44.4266L61.8537-36.1101C63.1342-34.7923 64.7191-33.8048 66.9009-33.8048C70.6649-33.8048 73.5446-36.5583 73.5446-40.5719C73.5446-42.418 72.7809-44.1664 71.354-45.6164L46.8044-70.1775C45.5639-71.4295 43.5314-72.2162 41.6365-72.2162C39.7416-72.2162 37.709-71.4295 36.4685-70.1775L11.9562-45.6164C10.5293-44.1664 9.76562-42.418 9.76562-40.5719C9.76562-36.5583 12.6453-33.8048 16.4093-33.8048C18.5911-33.8048 20.176-34.7923 21.4565-36.1101L29.7072-44.4266L39.2424-55.9576L35.3346-59.0001L34.5852-42.5493L34.5852-5.65558C34.5852-1.19705 37.4017 1.75721 41.6365 1.75721Z"/>
  </g>
  <g id="Bold-S" transform="matrix(1 0 0 1 2299.22 696)">
   <path d="M40.7471 1.53809C44.3115 1.53809 46.7285-0.952148 46.7285-4.66309L46.7285-45.6299L46.0693-60.5469L42.627-58.252L54.0039-45.0195L61.8408-37.2314C62.915-36.1328 64.3066-35.3516 66.0889-35.3516C69.3115-35.3516 71.7529-37.7441 71.7529-41.1133C71.7529-42.6758 71.1182-44.1406 69.8975-45.4102L45.1416-70.1904C44.043-71.3135 42.3584-71.9971 40.7471-71.9971C39.1357-71.9971 37.4512-71.3135 36.3525-70.1904L11.6211-45.4102C10.4004-44.1406 9.76562-42.6758 9.76562-41.1133C9.76562-37.7441 12.207-35.3516 15.4297-35.3516C17.2119-35.3516 18.6035-36.1328 19.6777-37.2314L27.4902-45.0195L38.8428-58.252L35.4248-60.5469L34.7656-45.6299L34.7656-4.66309C34.7656-0.952148 37.1826 1.53809 40.7471 1.53809Z"/>
  </g>
  <g id="Semibold-S" transform="matrix(1 0 0 1 2003.13 696)">
   <path d="M40.1339 1.38701C43.2362 1.38701 45.3777-0.783301 45.3777-3.97881L45.3777-47.7538L44.7808-61.6133L41.6672-59.8338L54.3061-45.4283L61.8319-38.0046C62.764-37.057 64.0223-36.418 65.529-36.418C68.3784-36.418 70.5177-38.5617 70.5177-41.4865C70.5177-42.8535 69.9718-44.1229 68.8933-45.268L43.9952-70.1993C42.9943-71.2335 41.5497-71.846 40.1339-71.846C38.7181-71.846 37.2734-71.2335 36.2726-70.1993L11.39-45.268C10.3115-44.1229 9.76562-42.8535 9.76562-41.4865C9.76562-38.5617 11.9049-36.418 14.7543-36.418C16.261-36.418 17.5193-37.057 18.4514-38.0046L25.9617-45.4283L38.5673-59.8338L35.487-61.6133L34.89-47.7538L34.89-3.97881C34.89-0.783301 37.0315 1.38701 40.1339 1.38701Z"/>
  </g>
  <g id="Medium-S" transform="matrix(1 0 0 1 1706.88 696)">
   <path d="M39.6689 1.27246C42.4209 1.27246 44.3535-0.655273 44.3535-3.45996L44.3535-49.3643L43.8037-62.4219L40.9395-61.0332L54.5352-45.7383L61.8252-38.5908C62.6494-37.7578 63.8066-37.2266 65.1045-37.2266C67.6709-37.2266 69.5811-39.1816 69.5811-41.7695C69.5811-42.9883 69.1025-44.1094 68.1318-45.1602L43.126-70.2061C42.1992-71.1729 40.9365-71.7314 39.6689-71.7314C38.4014-71.7314 37.1387-71.1729 36.2119-70.2061L11.2148-45.1602C10.2441-44.1094 9.76562-42.9883 9.76562-41.7695C9.76562-39.1816 11.6758-37.2266 14.2422-37.2266C15.54-37.2266 16.6973-37.7578 17.5215-38.5908L24.8027-45.7383L38.3584-61.0332L35.5342-62.4219L34.9844-49.3643L34.9844-3.45996C34.9844-0.655273 36.917 1.27246 39.6689 1.27246Z"/>
  </g>
  <g id="Regular-S" transform="matrix(1 0 0 1 1410.78 696)">
   <path d="M39.0625 1.12305C41.3574 1.12305 43.0176-0.488281 43.0176-2.7832L43.0176-51.4648L42.5293-63.4766L39.9902-62.5977L54.834-46.1426L61.8164-39.3555C62.5-38.6719 63.5254-38.2812 64.5508-38.2812C66.748-38.2812 68.3594-39.9902 68.3594-42.1387C68.3594-43.1641 67.9688-44.0918 67.1387-45.0195L41.9922-70.2148C41.1621-71.0938 40.1367-71.582 39.0625-71.582C37.9883-71.582 36.9629-71.0938 36.1328-70.2148L10.9863-45.0195C10.1562-44.0918 9.76562-43.1641 9.76562-42.1387C9.76562-39.9902 11.377-38.2812 13.5742-38.2812C14.5996-38.2812 15.625-38.6719 16.3086-39.3555L23.291-46.1426L38.0859-62.5977L35.5957-63.4766L35.1074-51.4648L35.1074-2.7832C35.1074-0.488281 36.7676 1.12305 39.0625 1.12305Z"/>
  </g>
  <g id="Light-S" transform="matrix(1 0 0 1 1114.62 696)">
   <path d="M38.5176 0.759768C40.2525 0.759768 41.5191-0.473145 41.5191-2.19288L41.5191-53.9927L41.1519-64.8843L39.3394-64.2324L52.0943-50.3506L62.2856-40.2939C62.7876-39.792 63.5859-39.4922 64.3843-39.4922C66.0366-39.4922 67.2695-40.7773 67.2695-42.4263C67.2695-43.2246 66.9849-43.9253 66.3516-44.6108L40.7358-70.1997C40.1025-70.8667 39.3496-71.2188 38.5176-71.2188C37.7007-71.2188 36.9326-70.8667 36.2993-70.1997L10.6987-44.6108C10.0654-43.9253 9.76562-43.2246 9.76562-42.4263C9.76562-40.7773 10.9985-39.4922 12.666-39.4922C13.4492-39.4922 14.2476-39.792 14.7647-40.2939L24.9409-50.3506L37.6621-64.2324L35.8833-64.8843L35.5312-53.9927L35.5312-2.19288C35.5312-0.473145 36.7827 0.759768 38.5176 0.759768Z"/>
  </g>
  <g id="Thin-S" transform="matrix(1 0 0 1 818.625 696)">
   <path d="M37.7969 0.279304C38.791 0.279304 39.5371-0.453125 39.5371-1.41212L39.5371-57.3359L39.3301-66.7461L38.4785-66.3945L48.4708-55.9159L62.9062-41.5351C63.168-41.2734 63.666-41.0937 64.1641-41.0937C65.0957-41.0937 65.8281-41.8183 65.8281-42.8066C65.8281-43.3047 65.6836-43.7051 65.3106-44.0703L39.0742-70.1797C38.7012-70.5664 38.3086-70.7383 37.7969-70.7383C37.3203-70.7383 36.8926-70.5664 36.5195-70.1797L10.3184-44.0703C9.94531-43.7051 9.76562-43.3047 9.76562-42.8066C9.76562-41.8183 10.4981-41.0937 11.4649-41.0937C11.9278-41.0937 12.4258-41.2734 12.7227-41.5351L27.123-55.9159L37.1016-66.3945L36.2637-66.7461L36.0918-57.3359L36.0918-1.41212C36.0918-0.453125 36.8027 0.279304 37.7969 0.279304Z"/>
  </g>
  <g id="Ultralight-S" transform="matrix(1 0 0 1 522.283 696)">
   <path d="M37.4277 0.0332117C38.0425 0.0332117 38.522-0.442871 38.522-1.01222L38.522-59.0483L38.397-67.6997L38.0376-67.5019L46.6148-58.7665L63.2241-42.1709C63.3628-42.0322 63.707-41.914 64.0513-41.914C64.6138-41.914 65.0899-42.3515 65.0899-43.0015C65.0899-43.3457 65.0171-43.5923 64.7774-43.7935L38.2232-70.1694C37.9834-70.4126 37.7754-70.4922 37.4277-70.4922C37.1255-70.4922 36.8721-70.4126 36.6323-70.1694L10.1235-43.7935C9.88379-43.5923 9.76562-43.3457 9.76562-43.0015C9.76562-42.3515 10.2417-41.914 10.8496-41.914C11.1485-41.914 11.4927-42.0322 11.6768-42.1709L28.2407-58.7665L36.8145-67.5019L36.4585-67.6997L36.3789-59.0483L36.3789-1.01222C36.3789-0.442871 36.813 0.0332117 37.4277 0.0332117Z"/>
  </g>
 </g>
</svg>
